<mxfile host="app.diagrams.net" modified="2024-01-04T12:48:04.563Z" agent="Mozilla/5.0 (Macintosh; Intel Mac OS X 10_15_7) AppleWebKit/605.1.15 (KHTML, like Gecko) Version/17.2.1 Safari/605.1.15" etag="zFOTwxNiJXtX0s_TB6ES" version="22.1.16" type="google">
  <diagram name="Page-1" id="0b44BqtSGxf2esCJP0kn">
    <mxGraphModel grid="1" page="1" gridSize="10" guides="1" tooltips="1" connect="1" arrows="1" fold="1" pageScale="1" pageWidth="827" pageHeight="1169" math="0" shadow="0">
      <root>
        <mxCell id="0" />
        <mxCell id="1" parent="0" />
        <mxCell id="vufeO6JMR9wT7L-fwTqh-28" value="" style="rounded=0;whiteSpace=wrap;html=1;fillColor=#f5f5f5;strokeColor=#666666;fontColor=#333333;fontSize=14;" vertex="1" parent="1">
          <mxGeometry x="-20" y="430" width="280" height="280" as="geometry" />
        </mxCell>
        <mxCell id="vufeO6JMR9wT7L-fwTqh-10" value="" style="rounded=0;whiteSpace=wrap;html=1;fillColor=#e1d5e7;strokeColor=#9673a6;fontSize=14;" vertex="1" parent="1">
          <mxGeometry x="230" y="190" width="260" height="220" as="geometry" />
        </mxCell>
        <mxCell id="vufeO6JMR9wT7L-fwTqh-13" style="edgeStyle=orthogonalEdgeStyle;rounded=0;orthogonalLoop=1;jettySize=auto;html=1;entryX=0;entryY=0.5;entryDx=0;entryDy=0;" edge="1" parent="1" source="vufeO6JMR9wT7L-fwTqh-1" target="vufeO6JMR9wT7L-fwTqh-8">
          <mxGeometry relative="1" as="geometry">
            <Array as="points">
              <mxPoint x="120" y="360" />
            </Array>
          </mxGeometry>
        </mxCell>
        <mxCell id="vufeO6JMR9wT7L-fwTqh-41" style="edgeStyle=orthogonalEdgeStyle;rounded=0;orthogonalLoop=1;jettySize=auto;html=1;entryX=0.5;entryY=0;entryDx=0;entryDy=0;startArrow=classic;startFill=1;" edge="1" parent="1" source="vufeO6JMR9wT7L-fwTqh-1" target="vufeO6JMR9wT7L-fwTqh-24">
          <mxGeometry relative="1" as="geometry" />
        </mxCell>
        <mxCell id="vufeO6JMR9wT7L-fwTqh-1" value="Gateway&lt;br style=&quot;font-size: 14px;&quot;&gt;Agri 1&lt;br style=&quot;font-size: 14px;&quot;&gt;Champ 1" style="ellipse;whiteSpace=wrap;html=1;aspect=fixed;fillColor=#ffe6cc;strokeColor=#d79b00;fontSize=14;gradientDirection=north;" vertex="1" parent="1">
          <mxGeometry x="80" y="440" width="80" height="80" as="geometry" />
        </mxCell>
        <mxCell id="vufeO6JMR9wT7L-fwTqh-14" style="edgeStyle=orthogonalEdgeStyle;rounded=0;orthogonalLoop=1;jettySize=auto;html=1;entryX=0;entryY=1;entryDx=0;entryDy=0;" edge="1" parent="1" source="vufeO6JMR9wT7L-fwTqh-2" target="vufeO6JMR9wT7L-fwTqh-8">
          <mxGeometry relative="1" as="geometry" />
        </mxCell>
        <mxCell id="vufeO6JMR9wT7L-fwTqh-2" value="Agri 1&lt;br style=&quot;font-size: 14px;&quot;&gt;Champ 2" style="ellipse;whiteSpace=wrap;html=1;aspect=fixed;fillColor=#ffe6cc;strokeColor=#d79b00;fontSize=14;gradientDirection=north;" vertex="1" parent="1">
          <mxGeometry x="270" y="440" width="80" height="80" as="geometry" />
        </mxCell>
        <mxCell id="vufeO6JMR9wT7L-fwTqh-15" style="edgeStyle=orthogonalEdgeStyle;rounded=0;orthogonalLoop=1;jettySize=auto;html=1;entryX=1;entryY=1;entryDx=0;entryDy=0;" edge="1" parent="1" source="vufeO6JMR9wT7L-fwTqh-3" target="vufeO6JMR9wT7L-fwTqh-8">
          <mxGeometry relative="1" as="geometry" />
        </mxCell>
        <mxCell id="vufeO6JMR9wT7L-fwTqh-3" value="Agri 2&lt;br style=&quot;font-size: 14px;&quot;&gt;Champ 1" style="ellipse;whiteSpace=wrap;html=1;aspect=fixed;fillColor=#ffe6cc;strokeColor=#d79b00;fontSize=14;gradientDirection=north;" vertex="1" parent="1">
          <mxGeometry x="374" y="440" width="80" height="80" as="geometry" />
        </mxCell>
        <mxCell id="vufeO6JMR9wT7L-fwTqh-16" style="edgeStyle=orthogonalEdgeStyle;rounded=0;orthogonalLoop=1;jettySize=auto;html=1;entryX=1;entryY=0.5;entryDx=0;entryDy=0;" edge="1" parent="1" source="vufeO6JMR9wT7L-fwTqh-4" target="vufeO6JMR9wT7L-fwTqh-8">
          <mxGeometry relative="1" as="geometry">
            <Array as="points">
              <mxPoint x="600" y="360" />
            </Array>
          </mxGeometry>
        </mxCell>
        <mxCell id="vufeO6JMR9wT7L-fwTqh-4" value="Agri 3&lt;br style=&quot;font-size: 14px;&quot;&gt;Champ 1" style="ellipse;whiteSpace=wrap;html=1;aspect=fixed;fillColor=#ffe6cc;strokeColor=#d79b00;fontSize=14;gradientDirection=north;" vertex="1" parent="1">
          <mxGeometry x="560" y="440" width="80" height="80" as="geometry" />
        </mxCell>
        <mxCell id="vufeO6JMR9wT7L-fwTqh-18" style="edgeStyle=orthogonalEdgeStyle;rounded=0;orthogonalLoop=1;jettySize=auto;html=1;entryX=0.5;entryY=1;entryDx=0;entryDy=0;" edge="1" parent="1" source="vufeO6JMR9wT7L-fwTqh-6" target="vufeO6JMR9wT7L-fwTqh-7">
          <mxGeometry relative="1" as="geometry" />
        </mxCell>
        <mxCell id="vufeO6JMR9wT7L-fwTqh-6" value="Backend" style="ellipse;whiteSpace=wrap;html=1;aspect=fixed;fillColor=#d5e8d4;strokeColor=#82b366;fontSize=14;" vertex="1" parent="1">
          <mxGeometry x="320" y="200" width="80" height="80" as="geometry" />
        </mxCell>
        <mxCell id="vufeO6JMR9wT7L-fwTqh-7" value="Site Internet" style="ellipse;whiteSpace=wrap;html=1;aspect=fixed;fillColor=#d5e8d4;strokeColor=#82b366;fontSize=14;" vertex="1" parent="1">
          <mxGeometry x="320" y="80" width="80" height="80" as="geometry" />
        </mxCell>
        <mxCell id="vufeO6JMR9wT7L-fwTqh-17" style="edgeStyle=orthogonalEdgeStyle;rounded=0;orthogonalLoop=1;jettySize=auto;html=1;entryX=0.5;entryY=1;entryDx=0;entryDy=0;startArrow=classic;startFill=1;" edge="1" parent="1" source="vufeO6JMR9wT7L-fwTqh-8" target="vufeO6JMR9wT7L-fwTqh-6">
          <mxGeometry relative="1" as="geometry" />
        </mxCell>
        <mxCell id="vufeO6JMR9wT7L-fwTqh-8" value="Base de donnÃ©es" style="ellipse;whiteSpace=wrap;html=1;aspect=fixed;fillColor=#dae8fc;strokeColor=#6c8ebf;fontSize=14;" vertex="1" parent="1">
          <mxGeometry x="320" y="320" width="80" height="80" as="geometry" />
        </mxCell>
        <mxCell id="vufeO6JMR9wT7L-fwTqh-11" value="&lt;font style=&quot;font-size: 14px;&quot;&gt;Infrastructure&lt;/font&gt;" style="text;html=1;strokeColor=none;fillColor=none;align=center;verticalAlign=middle;whiteSpace=wrap;rounded=0;fontSize=14;" vertex="1" parent="1">
          <mxGeometry x="400" y="190" width="80" height="30" as="geometry" />
        </mxCell>
        <mxCell id="vufeO6JMR9wT7L-fwTqh-32" style="edgeStyle=orthogonalEdgeStyle;rounded=0;orthogonalLoop=1;jettySize=auto;html=1;startArrow=classic;startFill=1;" edge="1" parent="1" source="vufeO6JMR9wT7L-fwTqh-22" target="vufeO6JMR9wT7L-fwTqh-24">
          <mxGeometry relative="1" as="geometry" />
        </mxCell>
        <mxCell id="vufeO6JMR9wT7L-fwTqh-34" style="edgeStyle=orthogonalEdgeStyle;rounded=0;orthogonalLoop=1;jettySize=auto;html=1;entryX=1;entryY=0.5;entryDx=0;entryDy=0;" edge="1" parent="1" source="vufeO6JMR9wT7L-fwTqh-22" target="vufeO6JMR9wT7L-fwTqh-25">
          <mxGeometry relative="1" as="geometry" />
        </mxCell>
        <mxCell id="vufeO6JMR9wT7L-fwTqh-35" style="edgeStyle=orthogonalEdgeStyle;rounded=0;orthogonalLoop=1;jettySize=auto;html=1;entryX=0;entryY=0.5;entryDx=0;entryDy=0;startArrow=classic;startFill=1;" edge="1" parent="1" source="vufeO6JMR9wT7L-fwTqh-22" target="vufeO6JMR9wT7L-fwTqh-26">
          <mxGeometry relative="1" as="geometry" />
        </mxCell>
        <mxCell id="vufeO6JMR9wT7L-fwTqh-38" style="edgeStyle=orthogonalEdgeStyle;rounded=0;orthogonalLoop=1;jettySize=auto;html=1;entryX=0.5;entryY=1;entryDx=0;entryDy=0;" edge="1" parent="1" source="vufeO6JMR9wT7L-fwTqh-22" target="vufeO6JMR9wT7L-fwTqh-1">
          <mxGeometry relative="1" as="geometry" />
        </mxCell>
        <mxCell id="vufeO6JMR9wT7L-fwTqh-22" value="Capteurs 2" style="ellipse;whiteSpace=wrap;html=1;aspect=fixed;fillColor=#ffe6cc;strokeColor=#d79b00;fontSize=13;" vertex="1" parent="1">
          <mxGeometry x="90" y="560" width="60" height="60" as="geometry" />
        </mxCell>
        <mxCell id="vufeO6JMR9wT7L-fwTqh-31" style="edgeStyle=orthogonalEdgeStyle;rounded=0;orthogonalLoop=1;jettySize=auto;html=1;startArrow=classic;startFill=1;" edge="1" parent="1" source="vufeO6JMR9wT7L-fwTqh-23" target="vufeO6JMR9wT7L-fwTqh-22">
          <mxGeometry relative="1" as="geometry" />
        </mxCell>
        <mxCell id="vufeO6JMR9wT7L-fwTqh-33" style="edgeStyle=orthogonalEdgeStyle;rounded=0;orthogonalLoop=1;jettySize=auto;html=1;entryX=0;entryY=0.5;entryDx=0;entryDy=0;startArrow=classic;startFill=1;" edge="1" parent="1" source="vufeO6JMR9wT7L-fwTqh-23" target="vufeO6JMR9wT7L-fwTqh-25">
          <mxGeometry relative="1" as="geometry" />
        </mxCell>
        <mxCell id="vufeO6JMR9wT7L-fwTqh-40" style="edgeStyle=orthogonalEdgeStyle;rounded=0;orthogonalLoop=1;jettySize=auto;html=1;entryX=0;entryY=0.5;entryDx=0;entryDy=0;startArrow=classic;startFill=1;" edge="1" parent="1" source="vufeO6JMR9wT7L-fwTqh-23" target="vufeO6JMR9wT7L-fwTqh-1">
          <mxGeometry relative="1" as="geometry">
            <Array as="points">
              <mxPoint x="20" y="480" />
            </Array>
          </mxGeometry>
        </mxCell>
        <mxCell id="vufeO6JMR9wT7L-fwTqh-23" value="Capteurs 1" style="ellipse;whiteSpace=wrap;html=1;aspect=fixed;fillColor=#ffe6cc;strokeColor=#d79b00;fontSize=13;" vertex="1" parent="1">
          <mxGeometry x="-10" y="560" width="60" height="60" as="geometry" />
        </mxCell>
        <mxCell id="vufeO6JMR9wT7L-fwTqh-24" value="Capteurs 3" style="ellipse;whiteSpace=wrap;html=1;aspect=fixed;fillColor=#ffe6cc;strokeColor=#d79b00;fontSize=13;" vertex="1" parent="1">
          <mxGeometry x="190" y="560" width="60" height="60" as="geometry" />
        </mxCell>
        <mxCell id="vufeO6JMR9wT7L-fwTqh-25" value="Capteurs 4" style="ellipse;whiteSpace=wrap;html=1;aspect=fixed;fillColor=#ffe6cc;strokeColor=#d79b00;fontSize=13;" vertex="1" parent="1">
          <mxGeometry x="40" y="640" width="60" height="60" as="geometry" />
        </mxCell>
        <mxCell id="vufeO6JMR9wT7L-fwTqh-37" style="edgeStyle=orthogonalEdgeStyle;rounded=0;orthogonalLoop=1;jettySize=auto;html=1;entryX=0.5;entryY=1;entryDx=0;entryDy=0;exitX=1;exitY=0.5;exitDx=0;exitDy=0;startArrow=classic;startFill=1;" edge="1" parent="1" source="vufeO6JMR9wT7L-fwTqh-26" target="vufeO6JMR9wT7L-fwTqh-24">
          <mxGeometry relative="1" as="geometry">
            <Array as="points">
              <mxPoint x="220" y="670" />
            </Array>
          </mxGeometry>
        </mxCell>
        <mxCell id="vufeO6JMR9wT7L-fwTqh-26" value="Capteurs 5" style="ellipse;whiteSpace=wrap;html=1;aspect=fixed;fillColor=#ffe6cc;strokeColor=#d79b00;fontSize=13;" vertex="1" parent="1">
          <mxGeometry x="140" y="640" width="60" height="60" as="geometry" />
        </mxCell>
        <mxCell id="vufeO6JMR9wT7L-fwTqh-30" value="RÃ©seau mesh" style="text;html=1;strokeColor=none;fillColor=none;align=center;verticalAlign=middle;whiteSpace=wrap;rounded=0;fontSize=14;" vertex="1" parent="1">
          <mxGeometry x="160" y="430" width="100" height="30" as="geometry" />
        </mxCell>
      </root>
    </mxGraphModel>
  </diagram>
</mxfile>
